Coordinates
version=1
nRows=8
nColumns=46
inDegrees=yes

Units are S.I. units (second, meters, Newtons, ...)
Angles are in degrees.

endheader
time	pelvis_tilt	pelvis_list	pelvis_rotation	pelvis_tx	pelvis_ty	pelvis_tz	bb_angle	bb_tx	bb_ty	bb_tz	hip_flexion_r	hip_adduction_r	hip_rotation_r	knee_angle_r	knee_angle_r_beta	ankle_angle_r	subtalar_angle_r	mtp_angle_r	crank_angle_r	hip_flexion_l	hip_adduction_l	hip_rotation_l	knee_angle_l	knee_angle_l_beta	ankle_angle_l	subtalar_angle_l	mtp_angle_l	crank_angle_l	lumbar_extension	lumbar_bending	lumbar_rotation	arm_flex_r	arm_add_r	arm_rot_r	elbow_flex_r	pro_sup_r	wrist_flex_r	wrist_dev_r	arm_flex_l	arm_add_l	arm_rot_l	elbow_flex_l	pro_sup_l	wrist_flex_l	wrist_dev_l
      7.50000000	    -24.30209324	     -7.01732466	      3.08933835	      0.37909645	      1.21626421	     -0.24843809	      0.00000000	      0.50000000	      0.00000000	      0.25000000	     57.56817477	     -9.22720129	     -8.57451369	     88.29166484	      1.54098025	    -11.15476419	      0.84964480	      0.00000000	      0.00000000	     51.78684469	     -9.62810237	      1.42582514	     45.34028891	      0.79133733	      2.63551604	      4.24488616	      0.00000000	      0.00000000	    -58.49694518	      3.85947784	      2.21576155	     53.86926708	    -26.04759063	     27.54850761	     75.39095911	     48.24315130	      0.00000000	      0.00000000	     58.33738054	    -37.60350834	     41.65371629	     80.99609743	     51.05123724	      0.00000000	      0.00000000
      7.50500000	    -24.24125171	     -7.66771279	      3.03489904	      0.37926594	      1.21462449	     -0.24871885	      0.00000000	      0.50000000	      0.00000000	      0.25000000	     58.79456107	     -8.94960575	     -8.76750933	     90.27848261	      1.57565677	    -10.32637492	      0.82145276	      0.00000000	      0.00000000	     50.46438723	    -10.23615606	      1.44170910	     43.35868488	      0.75675181	      1.40912535	      4.72673273	      0.00000000	      0.00000000	    -58.27474085	      4.49793831	      2.75846756	     53.90674532	    -25.98282253	     27.63174200	     75.32217674	     48.23923105	      0.00000000	      0.00000000	     57.89825063	    -37.58258517	     41.74555870	     80.93318546	     51.04976727	      0.00000000	      0.00000000
      7.51000000	    -24.04823134	     -7.97280493	      2.92911249	      0.37946798	      1.21326648	     -0.24918009	      0.00000000	      0.50000000	      0.00000000	      0.25000000	     59.97638020	     -8.91695503	     -8.61368468	     92.27896473	      1.61057176	     -9.38397534	      1.30253416	      0.00000000	      0.00000000	     48.84833624	    -10.60179056	      1.13721334	     41.31883490	      0.72114971	      0.01551324	      4.68508736	      0.00000000	      0.00000000	    -58.15386092	      4.99425830	      2.49272762	     54.80623798	    -25.39851821	     29.01707860	     74.02817143	     48.27744114	      0.00000000	      0.00000000	     56.29900302	    -37.86631742	     40.08602318	     81.30457797	     50.95502235	      0.00000000	      0.00000000
      7.51500000	    -23.98050815	     -8.56934471	      2.78782330	      0.37944928	      1.21167105	     -0.24934975	      0.00000000	      0.50000000	      0.00000000	      0.25000000	     61.22596725	     -8.60147897	     -8.75405667	     94.12482157	      1.64278804	     -8.41850464	      1.26880288	      0.00000000	      0.00000000	     47.54776198	    -11.25769689	      1.02348576	     39.50182056	      0.68943683	     -1.25307855	      5.04635108	      0.00000000	      0.00000000	    -57.95648936	      5.55399875	      3.00764914	     54.87472737	    -25.37358779	     29.07213789	     73.95046333	     48.26665454	      0.00000000	      0.00000000	     55.85215527	    -37.83601803	     40.15201427	     81.20900872	     50.94161684	      0.00000000	      0.00000000
      7.52000000	    -23.75346324	     -8.81840501	      2.62451648	      0.37956350	      1.21050713	     -0.24944006	      0.00000000	      0.50000000	      0.00000000	      0.25000000	     62.36063862	     -8.47364520	     -8.55110997	     95.94303548	      1.67452186	     -7.37704362	      1.66658906	      0.00000000	      0.00000000	     45.93465267	    -11.68502102	      0.57180336	     37.62529347	      0.65668525	     -2.66748824	      5.11901134	      0.00000000	      0.00000000	    -57.91887426	      5.81753078	      3.23304677	     54.98459211	    -25.36706548	     29.33055661	     73.64650658	     48.24252534	      0.00000000	      0.00000000	     55.38928741	    -37.69142611	     39.96306851	     80.95998924	     50.87312617	      0.00000000	      0.00000000
      7.52500000	    -23.70964225	     -9.28155507	      2.47232535	      0.37963746	      1.20921780	     -0.24965960	      0.00000000	      0.50000000	      0.00000000	      0.25000000	     63.58575177	     -8.21218707	     -8.61580911	     97.58172548	      1.70312240	     -6.29058625	      1.67257898	      0.00000000	      0.00000000	     44.63065360	    -12.24609576	      0.31451049	     35.87855970	      0.62619900	     -4.08601731	      5.46504329	      0.00000000	      0.00000000	    -57.73958870	      6.32121403	      3.61302624	     55.13528651	    -25.36268707	     29.50077600	     73.41117502	     48.21970780	      0.00000000	      0.00000000	     54.86363614	    -37.64101662	     39.85094632	     80.77094001	     50.82906959	      0.00000000	      0.00000000
      7.53000000	    -23.67939252	     -9.74722946	      2.30980154	      0.37967546	      1.20791699	     -0.24979392	      0.00000000	      0.50000000	      0.00000000	      0.25000000	     64.84489907	     -7.95781068	     -8.69487132	     99.12977645	      1.73014099	     -5.30385165	      1.64607970	      0.00000000	      0.00000000	     43.39959666	    -12.83876524	      0.04661305	     34.27664436	      0.59824030	     -5.33868280	      5.89504081	      0.00000000	      0.00000000	    -57.58357247	      6.84352792	      4.00588647	     55.32398888	    -25.36091310	     29.58132685	     73.27103870	     48.20023086	      0.00000000	      0.00000000	     54.39581662	    -37.66434015	     39.76367324	     80.59958203	     50.79007166	      0.00000000	      0.00000000
      7.53500000	    -23.39615004	     -9.79962564	      2.05446900	      0.38024396	      1.20737798	     -0.25003990	      0.00000000	      0.50000000	      0.00000000	      0.25000000	     65.84662353	     -7.85560288	     -8.34359038	    100.59685981	      1.75574642	     -4.24923495	      2.19663107	      0.00000000	      0.00000000	     41.66427271	    -13.18477121	     -0.77718073	     32.56412413	      0.56835118	     -6.80340501	      6.21195943	      0.00000000	      0.00000000	    -57.63426380	      7.13219352	      3.37904445	     56.78344936	    -24.44940988	     31.59848181	     71.11265251	     48.10696259	      0.00000000	      0.00000000	     52.09313189	    -37.71898523	     36.73878757	     80.84988043	     50.57033113	      0.00000000	      0.00000000
